<svg width="391" height="148" viewBox="0 0 391 148" fill="none" xmlns="http://www.w3.org/2000/svg">
<circle cx="74" cy="74" r="71.5" fill="white" stroke="#023047" stroke-width="5"/>
<rect x="41" y="59" width="59" height="4" fill="#FB8500"/>
<path d="M61.9 109V57.3H41.4C41.4 57.3 48.7612 53.4846 50.5 49C51.9118 45.3589 50.5 39 50.5 39H106C106 39 107.188 45.2798 106 49C104.783 52.81 100 57.3 100 57.3H85.5V109H61.9Z" fill="#023047"/>
<path d="M125.48 109V101.24L124.2 99.16V84.44C124.2 82.3067 123.533 80.68 122.2 79.56C120.92 78.44 118.813 77.88 115.88 77.88C113.907 77.88 111.907 78.2 109.88 78.84C107.853 79.4267 106.12 80.2533 104.68 81.32L98.92 69.4C101.48 67.8 104.547 66.5733 108.12 65.72C111.693 64.8667 115.187 64.44 118.6 64.44C126.12 64.44 131.933 66.12 136.04 69.48C140.2 72.84 142.28 78.1733 142.28 85.48V109H125.48ZM113.08 109.8C109.507 109.8 106.52 109.187 104.12 107.96C101.72 106.733 99.9067 105.107 98.68 103.08C97.4533 101 96.84 98.7067 96.84 96.2C96.84 93.3733 97.56 90.9733 99 89C100.44 87.0267 102.627 85.5333 105.56 84.52C108.547 83.5067 112.307 83 116.84 83H125.96V91.72H119.72C117.8 91.72 116.387 92.04 115.48 92.68C114.627 93.2667 114.2 94.1733 114.2 95.4C114.2 96.4133 114.573 97.2667 115.32 97.96C116.12 98.6 117.187 98.92 118.52 98.92C119.747 98.92 120.867 98.6 121.88 97.96C122.947 97.2667 123.72 96.2 124.2 94.76L126.52 100.12C125.827 103.373 124.36 105.8 122.12 107.4C119.88 109 116.867 109.8 113.08 109.8ZM180.494 64.44C183.854 64.44 186.894 65.1333 189.614 66.52C192.334 67.8533 194.467 69.96 196.014 72.84C197.614 75.72 198.414 79.4533 198.414 84.04V109H180.334V87.16C180.334 84.44 179.854 82.52 178.894 81.4C177.934 80.2267 176.627 79.64 174.974 79.64C173.747 79.64 172.6 79.9333 171.534 80.52C170.52 81.0533 169.694 81.96 169.054 83.24C168.467 84.52 168.174 86.2533 168.174 88.44V109H150.094V65.24H167.294V78.04L163.854 74.36C165.56 71.0533 167.854 68.5733 170.734 66.92C173.667 65.2667 176.92 64.44 180.494 64.44ZM216.204 109L201.004 65.24H218.124L229.644 100.76H221.404L233.484 65.24H248.844L260.364 100.76H252.364L264.284 65.24H280.124L264.924 109H247.324L238.124 80.84H243.404L233.804 109H216.204ZM283.609 109V65.24H301.689V109H283.609ZM292.649 61.72C289.343 61.72 286.703 60.84 284.729 59.08C282.756 57.32 281.769 55.1333 281.769 52.52C281.769 49.9067 282.756 47.72 284.729 45.96C286.703 44.2 289.343 43.32 292.649 43.32C295.956 43.32 298.596 44.1467 300.569 45.8C302.543 47.4533 303.529 49.5867 303.529 52.2C303.529 54.9733 302.543 57.2667 300.569 59.08C298.596 60.84 295.956 61.72 292.649 61.72ZM309.703 109V65.24H326.903V78.44L324.103 74.68C325.436 71.2667 327.57 68.7067 330.503 67C333.436 65.2933 336.956 64.44 341.063 64.44V80.44C340.263 80.3333 339.543 80.2533 338.903 80.2C338.316 80.1467 337.703 80.12 337.063 80.12C334.343 80.12 332.103 80.84 330.343 82.28C328.636 83.6667 327.783 86.0933 327.783 89.56V109H309.703ZM370.246 109V101.24L368.966 99.16V84.44C368.966 82.3067 368.299 80.68 366.966 79.56C365.686 78.44 363.579 77.88 360.646 77.88C358.672 77.88 356.672 78.2 354.646 78.84C352.619 79.4267 350.886 80.2533 349.446 81.32L343.686 69.4C346.246 67.8 349.312 66.5733 352.886 65.72C356.459 64.8667 359.952 64.44 363.366 64.44C370.886 64.44 376.699 66.12 380.806 69.48C384.966 72.84 387.046 78.1733 387.046 85.48V109H370.246ZM357.846 109.8C354.272 109.8 351.286 109.187 348.886 107.96C346.486 106.733 344.672 105.107 343.446 103.08C342.219 101 341.606 98.7067 341.606 96.2C341.606 93.3733 342.326 90.9733 343.766 89C345.206 87.0267 347.392 85.5333 350.326 84.52C353.312 83.5067 357.072 83 361.606 83H370.726V91.72H364.486C362.566 91.72 361.152 92.04 360.246 92.68C359.392 93.2667 358.966 94.1733 358.966 95.4C358.966 96.4133 359.339 97.2667 360.086 97.96C360.886 98.6 361.952 98.92 363.286 98.92C364.512 98.92 365.632 98.6 366.646 97.96C367.712 97.2667 368.486 96.2 368.966 94.76L371.286 100.12C370.592 103.373 369.126 105.8 366.886 107.4C364.646 109 361.632 109.8 357.846 109.8Z" fill="#023047"/>
</svg>
